<?xml version="1.0" encoding="UTF-8"?>
<!-- Generator: Adobe Illustrator 16.0.0, SVG Export Plug-In . SVG Version: 6.00 Build 0)  -->
<!DOCTYPE svg PUBLIC "-//W3C//DTD SVG 1.1//EN" "http://www.w3.org/Graphics/SVG/1.1/DTD/svg11.dtd">
<svg version="1.1" xmlns="http://www.w3.org/2000/svg" xmlns:xlink="http://www.w3.org/1999/xlink" x="0px" y="0px" width="250px" height="50px" viewBox="0 0 250 50" enable-background="new 0 0 250 50" xml:space="preserve">
<g id="Layer_1">
	<rect x="53.557" y="15.185" fill="#FFCD28" width="168.443" height="27.796"/>
	<polygon fill="#FFCD28" points="29.842,48.428 56.644,1 83.445,48.428  "/>
</g>
<g id="Neto">
	<g>
		<path d="M96.616,31.215c-0.451,0.413-1.009,0.729-1.674,0.949c-0.665,0.219-1.393,0.328-2.184,0.328s-1.339,0-1.644,0v4.061    h-2.795V23.036h0.844h3.946c2.396,0,3.914,0.831,4.553,2.494c0.223,0.586,0.334,1.276,0.334,2.072    c0,0.797-0.117,1.494-0.352,2.094C97.41,30.296,97.067,30.803,96.616,31.215z M95.219,27.703c0-0.95-0.218-1.639-0.655-2.066    c-0.437-0.427-1.025-0.641-1.767-0.641s-1.302,0.064-1.683,0.193v5.124c0.346,0.047,0.76,0.07,1.244,0.07s0.885-0.041,1.204-0.124    s0.602-0.231,0.848-0.445C94.949,29.356,95.219,28.652,95.219,27.703z"/>
		<path d="M100.193,22.104h2.742v14.449h-2.742V22.104z"/>
		<path d="M109.545,29.043l0.51-0.742h-4.289l0.018-1.908h7.611l0.308,0.85l-4.254,6.662l-0.536,0.75h4.649v1.898h-8.007    l-0.369-0.729L109.545,29.043z"/>
		<path d="M123.52,28.429c0.217,0.493,0.328,1.122,0.334,1.89s-0.023,1.352-0.088,1.752h-5.933c0.111,1.635,1.005,2.453,2.681,2.453    c0.656,0,1.216-0.069,1.679-0.207s0.762-0.242,0.896-0.313l0.448,1.557c-0.551,0.451-1.409,0.758-2.575,0.922    c-0.375,0.053-0.851,0.08-1.428,0.08s-1.159-0.116-1.745-0.348c-0.586-0.23-1.078-0.566-1.477-1.006    c-0.814-0.891-1.222-2.146-1.222-3.766c0-1.481,0.413-2.682,1.239-3.602c0.873-0.966,2.077-1.449,3.612-1.449    C121.718,26.393,122.91,27.072,123.52,28.429z M121.322,30.186c0-1.228-0.51-1.842-1.529-1.842c-0.545,0-0.967,0.158-1.266,0.473    c-0.34,0.365-0.554,0.943-0.642,1.734h3.428C121.319,30.424,121.322,30.302,121.322,30.186z"/>
		<path d="M126.244,26.533h2.487l0.053,1.072c0.656-0.498,1.433-0.863,2.329-1.098c0.363-0.094,0.753-0.141,1.169-0.141    s0.809,0.06,1.178,0.18s0.683,0.332,0.94,0.637c0.516,0.609,0.773,1.639,0.773,3.086v6.283h-2.742v-5.695    c0-0.838-0.103-1.412-0.308-1.723c-0.199-0.305-0.568-0.457-1.107-0.457c-0.498,0-1.011,0.141-1.538,0.422    c-0.176,0.094-0.34,0.209-0.492,0.344v7.109h-2.742V26.533z M127.501,22.605l1.23-0.58l0.993,1.107    c0.563,0.615,0.873,1.005,0.932,1.169c0.076-0.152,0.366-0.542,0.87-1.169l0.923-1.099l1.301,0.58l-2.153,3.146h-1.881    L127.501,22.605z"/>
		<path d="M144.007,26.533h2.487l0.053,1.072c0.656-0.498,1.433-0.863,2.329-1.098c0.363-0.094,0.753-0.141,1.169-0.141    s0.809,0.06,1.178,0.18s0.683,0.332,0.94,0.637c0.516,0.609,0.773,1.639,0.773,3.086v6.283h-2.742v-5.695    c0-0.838-0.103-1.412-0.308-1.723c-0.199-0.305-0.568-0.457-1.107-0.457c-0.498,0-1.011,0.141-1.538,0.422    c-0.176,0.094-0.34,0.209-0.492,0.344v7.109h-2.742V26.533z"/>
		<path d="M161.137,35.578c-0.721,0.656-1.59,0.984-2.609,0.984c-0.979,0-1.771-0.305-2.374-0.914    c-0.598-0.609-0.896-1.393-0.896-2.348c0-1.143,0.583-1.977,1.749-2.504c0.867-0.387,2.207-0.58,4.018-0.58v-0.572    c0-0.492-0.119-0.808-0.352-0.945c-0.246-0.143-0.791-0.215-1.635-0.215c-0.488,0-1.016,0.089-1.588,0.266    c-0.57,0.176-0.962,0.307-1.173,0.395l-0.606-1.705c0.691-0.41,1.632-0.725,2.822-0.941c0.404-0.07,0.879-0.105,1.428-0.105    c0.547,0,1.076,0.054,1.586,0.16s0.932,0.295,1.266,0.565c0.662,0.547,0.994,1.505,0.994,2.874v6.57h-1.6    c-0.377,0-0.619-0.035-0.73-0.105c-0.199-0.135-0.299-0.404-0.299-0.809V35.578z M158.087,33.328c0,0.217,0.035,0.414,0.105,0.593    s0.167,0.327,0.29,0.444c0.24,0.229,0.568,0.342,0.984,0.342c0.469,0,0.91-0.123,1.328-0.369c0.105-0.064,0.18-0.125,0.229-0.184    v-2.391c-0.967,0-1.758,0.17-2.373,0.51C158.274,32.473,158.087,32.824,158.087,33.328z"/>
		<path d="M172.467,22.104h2.742v5.863l-0.098,2.521l3.393-3.955h3.104l-3.578,3.902l3.93,6.117h-3.121l-2.602-4.174l-1.072,1.168    l0.045,1.135v1.871h-2.742V22.104z"/>
		<path d="M183.76,34.975c-0.381-0.486-0.652-1.039-0.813-1.658c-0.162-0.618-0.242-1.305-0.242-2.061    c0-0.754,0.131-1.443,0.393-2.064c0.26-0.622,0.609-1.139,1.049-1.549c0.891-0.833,2.068-1.25,3.533-1.25    c1.664,0,2.906,0.529,3.727,1.588c0.703,0.902,1.055,2.092,1.055,3.566c0,1.619-0.477,2.875-1.432,3.766    c-0.891,0.833-2.068,1.25-3.533,1.25C185.838,36.563,184.592,36.033,183.76,34.975z M187.619,28.354    c-1.383,0-2.074,0.996-2.074,2.991c0,1.484,0.365,2.487,1.098,3.009c0.258,0.184,0.578,0.275,0.959,0.275    c1.348,0,2.021-1.025,2.021-3.074c0-1.451-0.361-2.43-1.082-2.936C188.283,28.441,187.977,28.354,187.619,28.354z"/>
		<path d="M194.896,22.104h2.742v14.449h-2.742V22.104z"/>
		<path d="M208.484,28.429c0.217,0.493,0.328,1.122,0.334,1.89s-0.023,1.352-0.088,1.752h-5.934    c0.111,1.635,1.006,2.453,2.682,2.453c0.656,0,1.215-0.069,1.678-0.207s0.762-0.242,0.896-0.313l0.449,1.557    c-0.551,0.451-1.41,0.758-2.576,0.922c-0.375,0.053-0.852,0.08-1.428,0.08c-0.578,0-1.158-0.116-1.744-0.348    c-0.586-0.23-1.078-0.566-1.477-1.006c-0.814-0.891-1.223-2.146-1.223-3.766c0-1.481,0.414-2.682,1.24-3.602    c0.873-0.966,2.076-1.449,3.611-1.449C206.682,26.393,207.875,27.072,208.484,28.429z M206.287,30.186    c0-1.228-0.51-1.842-1.529-1.842c-0.545,0-0.967,0.158-1.266,0.473c-0.34,0.365-0.555,0.943-0.643,1.734h3.428    C206.283,30.424,206.287,30.302,206.287,30.186z"/>
	</g>
	<g>
		<path d="M31.047,49.256c-1.5-0.201-2.005-0.93-1.515-2.186l3.57-6.383L55.413,1.39c0.894-1.039,1.789-0.981,2.683,0.173    l24.712,43.365l1.061,2.164c0.259,1.082-0.246,1.805-1.515,2.164H31.047z M79.75,47.545c1.653,0.045,2.105-0.605,1.356-1.949    l-1.145-1.947L57.903,4.212c-0.805-1.44-1.596-1.49-2.373-0.148L35.612,39.811l-3.391,5.766c-0.748,1.342-0.424,1.998,0.975,1.969    H79.75z M56.646,26.275c-0.39,0.173-1.176,0.836-2.359,1.99c-0.159,0.145-0.382,0.289-0.671,0.434    c-0.865,0.332-1.371,0.316-1.515-0.043c-0.072-0.174,0.332-0.6,1.212-1.277c0.461-0.504,0.808-0.923,1.039-1.255    c-0.014-0.072-0.058-0.087-0.13-0.044c-1.543,1.588-2.864,2.619-3.96,3.096c-1.082,0.375-1.774,0.354-2.077-0.066    c-0.13-0.273,0.209-0.584,1.017-0.93c0.433-0.26,0.887-0.598,1.363-1.018c0.476-0.418,1.017-1.066,1.623-1.947    c-0.015-0.101-0.051-0.144-0.108-0.13c-1.544,1.674-3.138,2.878-4.782,3.614c-1.659,0.52-2.741,0.674-3.246,0.465    s-0.743-0.408-0.714-0.596c-0.073-0.143-0.008-0.273,0.194-0.389c0.736-0.246,1.176-0.396,1.32-0.455l0.476-0.217    c1.818-0.793,3.744-2.516,5.778-5.171c1.197-1.385,2.186-2.25,2.964-2.597c0.548-0.23,0.938-0.13,1.168,0.303    c0.072,0.274,0.101,0.566,0.087,0.876c-0.015,0.311,0.021,0.761,0.108,1.353c0.289,1.125,1.551,2.265,3.787,3.419    c0.389-0.187,0.75-0.281,1.082-0.281h0.043c0.707,0,1.977,1.428,3.809,4.284c2.063,1.43,3.231,2.287,3.506,2.576    c0.086,0.158,0.13,0.289,0.13,0.389c-0.145,0.506-0.347,0.758-0.606,0.758H67.12c-0.274,0-1.739-0.764-4.393-2.293    c-0.159-0.217-0.7-0.822-1.623-1.818c-0.317,0.26-0.916,0.924-1.796,1.99c-0.534,0.795-0.801,1.32-0.801,1.58    c-0.029,0.217-0.015,0.383,0.043,0.498l2.64,2.684c0.216,0.201,0.281,0.439,0.195,0.713c0,0.217-0.902,1.891-2.705,5.021    c-0.491,0.996-0.902,1.492-1.233,1.492c-0.621-0.129-0.931-0.381-0.931-0.756c0.13-0.535,0.786-2.381,1.969-5.541    c0-0.072-0.779-0.713-2.337-1.926c-0.145,0-0.404,0.008-0.779,0.021c-2.106,0-3.953-1.219-5.54-3.656V31.34    c0.101-0.045,0.224-0.066,0.368-0.066c0.635,0.102,1.082,0.152,1.342,0.152c0.952,0,1.904-0.621,2.856-1.861    c1.688-1.645,2.835-2.646,3.44-3.008C57.418,26.268,57.021,26.174,56.646,26.275z M49.549,45.924c-1.399,0-2.593-0.49-3.582-1.471    c-0.988-0.982-1.482-2.172-1.482-3.57c0-1.4,0.494-2.594,1.482-3.582s2.182-1.482,3.582-1.482c1.385,0,2.571,0.494,3.56,1.482    c0.988,0.988,1.482,2.182,1.482,3.582c0,1.398-0.495,2.588-1.482,3.57C52.12,45.434,50.934,45.924,49.549,45.924z M53.184,40.883    c0-1.01-0.357-1.869-1.071-2.576c-0.714-0.707-1.569-1.061-2.564-1.061c-1.01,0-1.869,0.354-2.575,1.061    c-0.707,0.707-1.061,1.566-1.061,2.576c0,0.994,0.354,1.85,1.061,2.563c0.707,0.715,1.565,1.072,2.575,1.072    c0.995,0,1.85-0.357,2.564-1.072C52.827,42.732,53.184,41.877,53.184,40.883z M64.978,23.787c0,0.52-0.184,0.959-0.552,1.32    c-0.368,0.361-0.812,0.541-1.331,0.541c-0.52,0-0.967-0.18-1.342-0.541c-0.375-0.361-0.563-0.801-0.563-1.32    c0-0.533,0.187-0.984,0.563-1.353c0.375-0.368,0.822-0.552,1.342-0.552c0.519,0,0.963,0.184,1.331,0.552    C64.794,22.802,64.978,23.253,64.978,23.787z M67.142,45.924c-1.399,0-2.59-0.49-3.57-1.471c-0.981-0.982-1.472-2.172-1.472-3.57    c0-1.4,0.49-2.594,1.472-3.582c0.98-0.988,2.171-1.482,3.57-1.482c1.399,0,2.593,0.494,3.582,1.482    c0.988,0.988,1.482,2.182,1.482,3.582c0,1.398-0.494,2.588-1.482,3.57C69.734,45.434,68.541,45.924,67.142,45.924z M70.799,40.883    c0-1.01-0.357-1.869-1.071-2.576c-0.714-0.707-1.576-1.061-2.586-1.061c-0.996,0-1.847,0.354-2.553,1.061    c-0.707,0.707-1.061,1.566-1.061,2.576c0,0.994,0.354,1.85,1.061,2.563c0.707,0.715,1.558,1.072,2.553,1.072    c1.01,0,1.872-0.357,2.586-1.072C70.441,42.732,70.799,41.877,70.799,40.883z"/>
	</g>
	<g display="none">
		<path display="inline" d="M94.595,36.172c-0.627,0.26-1.282,0.391-1.964,0.391s-1.276-0.094-1.78-0.281l0.035,1.4V41h-2.742    V26.393h2.558v1.02c0.773-0.68,1.746-1.02,2.918-1.02c1.137,0,2.065,0.389,2.786,1.163c0.803,0.851,1.204,2.036,1.204,3.558    c0,1.637-0.469,2.955-1.406,3.957C95.758,35.544,95.222,35.911,94.595,36.172z M92.775,28.301c-0.756,0-1.386,0.211-1.89,0.633    v5.299c0.299,0.27,0.814,0.404,1.547,0.404c0.674,0,1.219-0.293,1.635-0.88c0.445-0.622,0.668-1.487,0.668-2.597    c0-1.52-0.381-2.426-1.143-2.719C93.347,28.348,93.074,28.301,92.775,28.301z"/>
		<path display="inline" d="M100.026,22.104h2.742v14.449h-2.742V22.104z"/>
		<path display="inline" d="M109.378,29.043l0.51-0.742h-4.289l0.018-1.908h7.611l0.308,0.85l-4.254,6.662l-0.536,0.75h4.649v1.898    h-8.007l-0.369-0.729L109.378,29.043z"/>
		<path display="inline" d="M123.353,28.429c0.217,0.493,0.328,1.122,0.334,1.89s-0.023,1.352-0.088,1.752h-5.933    c0.111,1.635,1.005,2.453,2.681,2.453c0.656,0,1.216-0.069,1.679-0.207s0.762-0.242,0.896-0.313l0.448,1.557    c-0.551,0.451-1.409,0.758-2.575,0.922c-0.375,0.053-0.851,0.08-1.428,0.08s-1.159-0.116-1.745-0.348    c-0.586-0.23-1.078-0.566-1.477-1.006c-0.814-0.891-1.222-2.146-1.222-3.766c0-1.481,0.413-2.682,1.239-3.602    c0.873-0.966,2.077-1.449,3.612-1.449C121.551,26.393,122.743,27.072,123.353,28.429z M121.155,30.186    c0-1.228-0.51-1.842-1.529-1.842c-0.545,0-0.967,0.158-1.266,0.473c-0.34,0.365-0.554,0.943-0.642,1.734h3.428    C121.152,30.424,121.155,30.302,121.155,30.186z"/>
		<path display="inline" d="M126.077,26.533h2.487l0.053,1.072c0.656-0.498,1.433-0.863,2.329-1.098    c0.363-0.094,0.753-0.141,1.169-0.141s0.809,0.06,1.178,0.18s0.683,0.332,0.94,0.637c0.516,0.609,0.773,1.639,0.773,3.086v6.283    h-2.742v-5.695c0-0.838-0.103-1.412-0.308-1.723c-0.199-0.305-0.568-0.457-1.107-0.457c-0.498,0-1.011,0.141-1.538,0.422    c-0.176,0.094-0.34,0.209-0.492,0.344v7.109h-2.742V26.533z M127.334,22.605l1.23-0.58l0.993,1.107    c0.563,0.615,0.873,1.005,0.932,1.169c0.076-0.152,0.366-0.542,0.87-1.169l0.923-1.099l1.301,0.58l-2.153,3.146h-1.881    L127.334,22.605z"/>
		<path display="inline" d="M143.84,26.533h2.487l0.053,1.072c0.656-0.498,1.433-0.863,2.329-1.098    c0.363-0.094,0.753-0.141,1.169-0.141s0.809,0.06,1.178,0.18s0.683,0.332,0.94,0.637c0.516,0.609,0.773,1.639,0.773,3.086v6.283    h-2.742v-5.695c0-0.838-0.103-1.412-0.308-1.723c-0.199-0.305-0.568-0.457-1.107-0.457c-0.498,0-1.011,0.141-1.538,0.422    c-0.176,0.094-0.34,0.209-0.492,0.344v7.109h-2.742V26.533z"/>
		<path display="inline" d="M160.971,35.578c-0.721,0.656-1.592,0.984-2.611,0.984c-0.979,0-1.77-0.305-2.373-0.914    c-0.598-0.609-0.896-1.393-0.896-2.348c0-1.143,0.583-1.977,1.749-2.504c0.867-0.387,2.206-0.58,4.017-0.58v-0.572    c0-0.492-0.117-0.808-0.352-0.945c-0.246-0.143-0.791-0.215-1.635-0.215c-0.486,0-1.016,0.089-1.586,0.266    c-0.572,0.176-0.963,0.307-1.174,0.395l-0.606-1.705c0.691-0.41,1.632-0.725,2.821-0.941c0.404-0.07,0.881-0.105,1.428-0.105    c0.549,0,1.078,0.054,1.588,0.16s0.932,0.295,1.266,0.565c0.66,0.547,0.992,1.505,0.992,2.874v6.57h-1.6    c-0.375,0-0.619-0.035-0.729-0.105c-0.201-0.135-0.299-0.404-0.299-0.809V35.578z M157.92,33.328c0,0.217,0.035,0.414,0.105,0.593    s0.167,0.327,0.29,0.444c0.239,0.229,0.567,0.342,0.985,0.342c0.467,0,0.91-0.123,1.326-0.369    c0.105-0.064,0.182-0.125,0.229-0.184v-2.391c-0.967,0-1.758,0.17-2.373,0.51C158.107,32.473,157.92,32.824,157.92,33.328z"/>
		<path display="inline" d="M172.299,22.104h2.742v5.863l-0.098,2.521l3.393-3.955h3.104l-3.578,3.902l3.93,6.117h-3.121    l-2.602-4.174l-1.072,1.168l0.045,1.135v1.871h-2.742V22.104z"/>
		<path display="inline" d="M183.592,34.975c-0.381-0.486-0.652-1.039-0.813-1.658c-0.162-0.618-0.242-1.305-0.242-2.061    c0-0.754,0.131-1.443,0.393-2.064c0.26-0.622,0.609-1.139,1.049-1.549c0.891-0.833,2.068-1.25,3.533-1.25    c1.664,0,2.906,0.529,3.727,1.588c0.703,0.902,1.055,2.092,1.055,3.566c0,1.619-0.477,2.875-1.432,3.766    c-0.891,0.833-2.068,1.25-3.533,1.25C185.67,36.563,184.424,36.033,183.592,34.975z M187.451,28.354    c-1.383,0-2.074,0.996-2.074,2.991c0,1.484,0.365,2.487,1.098,3.009c0.258,0.184,0.578,0.275,0.959,0.275    c1.348,0,2.021-1.025,2.021-3.074c0-1.451-0.361-2.43-1.082-2.936C188.115,28.441,187.809,28.354,187.451,28.354z"/>
		<path display="inline" d="M194.729,22.104h2.742v14.449h-2.742V22.104z"/>
		<path display="inline" d="M208.316,28.429c0.217,0.493,0.328,1.122,0.334,1.89s-0.023,1.352-0.088,1.752h-5.934    c0.111,1.635,1.006,2.453,2.682,2.453c0.656,0,1.215-0.069,1.678-0.207s0.762-0.242,0.896-0.313l0.449,1.557    c-0.551,0.451-1.41,0.758-2.576,0.922c-0.375,0.053-0.852,0.08-1.428,0.08c-0.578,0-1.158-0.116-1.744-0.348    c-0.586-0.23-1.078-0.566-1.477-1.006c-0.814-0.891-1.223-2.146-1.223-3.766c0-1.481,0.414-2.682,1.24-3.602    c0.873-0.966,2.076-1.449,3.611-1.449C206.514,26.393,207.707,27.072,208.316,28.429z M206.119,30.186    c0-1.228-0.51-1.842-1.529-1.842c-0.545,0-0.967,0.158-1.266,0.473c-0.34,0.365-0.555,0.943-0.643,1.734h3.428    C206.115,30.424,206.119,30.302,206.119,30.186z"/>
	</g>
</g>
</svg>